<svg width="1000" height="800" viewBox="0 0 1000 800" fill="none" xmlns="http://www.w3.org/2000/svg">
<path opacity="0.91" d="M373.571 0C351.605 -2.00595e-06 329.855 3.95101 309.561 11.6274C289.267 19.3039 270.828 30.5553 255.296 44.7395C239.764 58.9237 227.443 75.7628 219.037 94.2953C210.632 112.828 206.305 132.691 206.305 152.75C206.305 172.81 210.632 192.673 219.037 211.205C227.443 229.738 239.764 246.577 255.296 260.761C270.828 274.945 289.267 286.197 309.561 293.873C329.855 301.55 351.605 305.501 373.571 305.501C417.932 305.501 460.477 289.407 491.845 260.761C523.214 232.115 540.836 193.262 540.836 152.75C540.836 112.238 523.214 73.3858 491.845 44.7395C460.477 16.0933 417.932 0 373.571 0ZM229.173 337.348C93.788 389.814 4.27267 509.492 0 643.744C91.5688 739.341 225.829 800 375.939 800C458.168 800 535.248 781.227 603.561 749.058C585.016 726.425 569.436 701.632 556.272 674.995C514.957 591.39 493.726 490.782 491.179 392.914L490.934 383.293L377.164 545.814L229.173 337.348ZM796.798 344.732C723.839 344.732 593.597 418.945 593.597 418.945C598.2 595.816 675.09 791.549 796.798 790.155C796.932 790.154 797.073 790.156 797.207 790.155C831.414 789.758 861.692 773.462 886.393 749.804C911.095 726.146 931.394 694.671 948.056 659.332C981.381 588.655 1000 502.417 1000 431.326V421.108L990.608 415.663C990.608 415.663 960.468 398.174 921.921 380.682C883.373 363.191 837.462 344.732 796.962 344.732H796.798ZM796.798 381.801H796.962C822.076 381.801 867.439 397.415 903.871 413.947C934.336 427.772 950.842 437.386 958.184 441.544C956.549 505.011 939.868 582.671 910.65 644.639C895.303 677.189 876.82 705.23 856.991 724.221C837.199 743.176 817.278 752.736 796.798 753.011V381.801Z" fill="white"/>
</svg>
