<svg width="800" height="800" viewBox="0 0 800 800" fill="none" xmlns="http://www.w3.org/2000/svg">
<path d="M778.961 129.637L409.73 1.64059C403.414 -0.546864 396.586 -0.546864 390.27 1.64059L21.6304 129.432L21.5928 129.446L21.0393 129.637C20.9308 129.674 20.8354 129.736 20.7275 129.775C19.3951 130.252 18.0962 130.825 16.8401 131.489C16.6959 131.565 16.5462 131.63 16.4034 131.708C15.1592 132.399 13.9622 133.179 12.8212 134.041C12.5695 134.229 12.325 134.422 12.0793 134.617C10.9696 135.491 9.91762 136.441 8.93038 137.462C8.83884 137.558 8.7595 137.664 8.66935 137.761C7.7586 138.747 6.90943 139.793 6.12704 140.892C5.96693 141.115 5.80119 141.332 5.64719 141.559C4.83969 142.746 4.11091 143.989 3.46589 145.279C3.36635 145.478 3.28093 145.682 3.18512 145.884C2.58321 147.148 2.06264 148.452 1.62684 149.788C1.586 149.914 1.53531 150.033 1.49588 150.16C1.06149 151.581 0.723713 153.031 0.485039 154.501C0.433846 154.808 0.392539 155.114 0.350424 155.421C0.128892 156.935 0.0117843 158.464 0 159.995V479.986C0 488.473 3.24175 496.612 9.0121 502.613C14.7824 508.614 22.6087 511.985 30.7692 511.985C38.9297 511.985 46.756 508.614 52.5264 502.613C58.2967 496.612 61.5385 488.473 61.5385 479.986V204.394L190.712 249.173C156.468 306.677 145.51 375.943 160.234 441.826C174.958 507.709 214.167 564.849 269.287 600.752C195.891 629.615 133.261 682.073 90.5029 750.498C88.2911 754.018 86.7681 757.957 86.021 762.089C85.2738 766.222 85.3172 770.467 86.1486 774.582C86.9799 778.697 88.583 782.601 90.8662 786.071C93.1494 789.541 96.0679 792.51 99.4548 794.806C102.842 797.103 106.631 798.682 110.605 799.455C114.579 800.228 118.661 800.178 122.617 799.309C126.573 798.441 130.326 796.769 133.66 794.391C136.995 792.013 139.846 788.975 142.05 785.45C170.004 740.789 208.238 704.092 253.282 678.689C298.327 653.287 348.758 639.982 399.999 639.982C451.24 639.982 501.671 653.287 546.716 678.689C591.761 704.092 629.994 740.789 657.948 785.45C660.154 788.97 663.006 792.004 666.34 794.377C669.674 796.751 673.425 798.419 677.379 799.285C681.333 800.151 685.412 800.199 689.383 799.426C693.355 798.652 697.141 797.073 700.526 794.778C703.91 792.483 706.827 789.517 709.11 786.05C711.392 782.583 712.996 778.682 713.829 774.57C714.662 770.458 714.708 766.216 713.964 762.086C713.22 757.956 711.702 754.018 709.495 750.498C666.738 682.073 604.109 629.616 530.713 600.753C585.833 564.849 625.042 507.709 639.766 441.826C654.49 375.943 643.532 306.677 609.288 249.173L778.961 190.354C785.087 188.23 790.416 184.155 794.192 178.706C797.968 173.258 800 166.712 800 159.995C800 153.279 797.968 146.733 794.192 141.285C790.416 135.836 785.087 131.761 778.961 129.637ZM400 575.984C365.855 575.99 332.377 566.146 303.29 547.547C274.203 528.948 250.646 502.323 235.24 470.633C219.834 438.943 213.183 403.429 216.025 368.043C218.868 332.656 231.093 298.782 251.341 270.19L390.27 318.35C396.586 320.538 403.414 320.538 409.73 318.35L548.659 270.19C568.907 298.782 581.132 332.656 583.975 368.043C586.817 403.429 580.166 438.943 564.76 470.633C549.354 502.323 525.797 528.948 496.71 547.547C467.623 566.146 434.145 575.99 400 575.984Z" fill="white"/>
</svg>
