<svg width="1000" height="800" viewBox="0 0 1000 800" fill="none" xmlns="http://www.w3.org/2000/svg">
<path d="M271.847 342.567C215.208 342.567 169.129 293.441 169.129 233.058C169.129 172.674 215.211 123.549 271.847 123.549C328.486 123.549 374.564 172.677 374.564 233.058C374.564 293.441 328.486 342.567 271.847 342.567ZM271.847 167.275C237.825 167.275 210.146 196.783 210.146 233.055C210.146 269.326 237.825 298.835 271.847 298.835C305.869 298.835 333.547 269.326 333.547 233.055C333.547 196.783 305.869 167.275 271.847 167.275Z" fill="white"/>
<path d="M979.491 648.704H952.683V21.8645C952.683 9.78653 943.5 0 932.174 0H67.823C56.4968 0 47.3145 9.78653 47.3145 21.8645V648.704H20.5085C9.1796 648.704 0 658.493 0 670.568V732.961C0 745.039 9.1796 754.825 20.5085 754.825H122.567V778.135C122.567 790.213 131.747 800 143.076 800H394.113C405.442 800 414.622 790.213 414.622 778.135V754.825H979.491C990.82 754.825 1000 745.039 1000 732.961V670.568C1000 658.49 990.82 648.704 979.491 648.704ZM122.567 711.096H41.017V692.433H122.567V711.096ZM122.567 417.258V648.704H88.3315V43.7289H911.668V648.704H414.622V536.393L493.908 611.05C500.779 616.776 506.738 616.569 507.889 616.525C513.454 616.42 518.739 613.91 522.529 609.566L686.313 421.934C695.689 411.302 700.516 397.467 699.909 382.975C699.411 371.116 695.252 360.035 688.14 351L808.352 213.47C816.072 204.637 815.615 190.801 807.329 182.565C799.044 174.335 786.066 174.828 778.341 183.656L658.26 321.037C649.756 314.355 639.428 310.758 628.596 311.015C615.028 311.251 601.9 317.457 592.627 327.984L502.461 430.998C502.461 430.998 433.465 362.148 432.68 361.565C421.026 351.808 406.528 346.452 391.674 346.452H188.974C152.359 346.455 122.567 378.217 122.567 417.258ZM655.189 377.392C655.326 377.529 655.465 377.663 655.602 377.797C658.211 380.272 658.853 383.039 658.933 384.925C659.042 387.523 658.153 390.027 656.324 392.1L640.333 410.507L606.171 376.366L622.479 357.977C624.91 355.219 627.779 354.761 629.269 354.738C630.511 354.743 632.936 354.977 634.812 356.974C634.957 357.125 635.102 357.277 635.252 357.423L655.189 377.392ZM407.69 471.52C401.647 465.824 393.033 464.445 385.683 467.975C378.333 471.511 373.605 479.31 373.605 487.907V756.271H163.584V417.258C163.584 402.329 174.973 390.184 188.974 390.184H391.677C399.213 390.184 404.611 393.54 407.813 396.353C407.821 396.362 407.829 396.368 407.838 396.376L489.459 477.942C493.44 481.925 498.745 484.079 504.206 483.84C509.661 483.639 514.815 481.12 518.523 476.855L578.137 408.288L612.419 442.548L506.114 564.202L407.69 471.52ZM958.983 711.096H414.622V692.433H958.983V711.096Z" fill="white"/>
</svg>
